<svg width="512" height="512" viewBox="0 0 512 512" fill="none" xmlns="http://www.w3.org/2000/svg">
  <defs>
    <linearGradient id="gold" x1="80" y1="64" x2="420" y2="448" gradientUnits="userSpaceOnUse">
      <stop stop-color="#F5BC4D"/>
      <stop offset="1" stop-color="#C8831E"/>
    </linearGradient>
    <linearGradient id="steel" x1="140" y1="180" x2="374" y2="400" gradientUnits="userSpaceOnUse">
      <stop stop-color="#8196B3"/>
      <stop offset="1" stop-color="#4B6488"/>
    </linearGradient>
  </defs>

  <circle cx="256" cy="256" r="224" stroke="url(#gold)" stroke-width="12"/>

  <path d="M176 174L205 116C223 108 241 104 256 104C271 104 289 108 307 116L336 174L256 184L176 174Z" fill="url(#gold)"/>
  <rect x="112" y="182" width="156" height="30" rx="15" fill="url(#gold)"/>
  <rect x="244" y="182" width="156" height="30" rx="15" fill="url(#gold)"/>

  <path d="M110 250H402V270C402 284 392 296 378 298L357 301C352 326 342 345 326 360L340 378C348 388 347 403 337 411L293 444C283 452 269 451 261 441L246 424C232 427 220 427 206 424L191 441C183 451 169 452 159 444L115 411C105 403 104 388 112 378L126 360C110 345 100 326 95 301L74 298C60 296 50 284 50 270V250H110Z" fill="url(#steel)"/>

  <path d="M152 250H218L210 286H165L152 250Z" fill="#E6EEF7" fill-opacity="0.8"/>
  <path d="M232 250H280L274 286H238L232 250Z" fill="#E6EEF7" fill-opacity="0.8"/>
  <path d="M294 250H360L347 286H302L294 250Z" fill="#E6EEF7" fill-opacity="0.8"/>
</svg>
